<?xml version="1.0" encoding="UTF-8" standalone="no"?>
<!-- Created with Inkscape (http://www.inkscape.org/) -->

<svg
   xmlns:dc="http://purl.org/dc/elements/1.1/"
   xmlns:cc="http://creativecommons.org/ns#"
   xmlns:rdf="http://www.w3.org/1999/02/22-rdf-syntax-ns#"
   xmlns:svg="http://www.w3.org/2000/svg"
   xmlns="http://www.w3.org/2000/svg"
   xmlns:sodipodi="http://sodipodi.sourceforge.net/DTD/sodipodi-0.dtd"
   xmlns:inkscape="http://www.inkscape.org/namespaces/inkscape"
   id="svg3406"
   version="1.1"
   inkscape:version="0.91 r13725"
   width="528.61169"
   height="446.47394"
   viewBox="0 0 528.61169 446.47394"
   sodipodi:docname="silhouette-danse-21.svg">
  <title
     id="title3339">Silhouette Danse 21</title>
  <metadata
     id="metadata3412">
    <rdf:RDF>
      <cc:Work
         rdf:about="">
        <dc:format>image/svg+xml</dc:format>
        <dc:type
           rdf:resource="http://purl.org/dc/dcmitype/StillImage" />
        <dc:title>Silhouette Danse 21</dc:title>
        <cc:license
           rdf:resource="http://creativecommons.org/publicdomain/zero/1.0/" />
        <dc:date>2017-02-19</dc:date>
        <dc:creator>
          <cc:Agent>
            <dc:title>JLouis</dc:title>
          </cc:Agent>
        </dc:creator>
        <dc:rights>
          <cc:Agent>
            <dc:title>Domaine pubic</dc:title>
          </cc:Agent>
        </dc:rights>
        <dc:publisher>
          <cc:Agent>
            <dc:title>inkscape</dc:title>
          </cc:Agent>
        </dc:publisher>
        <dc:subject>
          <rdf:Bag>
            <rdf:li>Silhouette</rdf:li>
            <rdf:li>dance</rdf:li>
            <rdf:li>dancer</rdf:li>
            <rdf:li>woman</rdf:li>
            <rdf:li>danse</rdf:li>
            <rdf:li>danseuse</rdf:li>
            <rdf:li>femme</rdf:li>
          </rdf:Bag>
        </dc:subject>
        <dc:description>Silhouette of dancer - Silhouette de danseuse.</dc:description>
      </cc:Work>
      <cc:License
         rdf:about="http://creativecommons.org/publicdomain/zero/1.0/">
        <cc:permits
           rdf:resource="http://creativecommons.org/ns#Reproduction" />
        <cc:permits
           rdf:resource="http://creativecommons.org/ns#Distribution" />
        <cc:permits
           rdf:resource="http://creativecommons.org/ns#DerivativeWorks" />
      </cc:License>
    </rdf:RDF>
  </metadata>
  <defs
     id="defs3410" />
  <sodipodi:namedview
     pagecolor="#ffffff"
     bordercolor="#666666"
     borderopacity="1"
     objecttolerance="10"
     gridtolerance="10"
     guidetolerance="10"
     inkscape:pageopacity="0"
     inkscape:pageshadow="2"
     inkscape:window-width="1235"
     inkscape:window-height="756"
     id="namedview3408"
     showgrid="false"
     fit-margin-top="0"
     fit-margin-left="0"
     fit-margin-right="0"
     fit-margin-bottom="0"
     inkscape:zoom="1.1501272"
     inkscape:cx="356.64936"
     inkscape:cy="217.04584"
     inkscape:window-x="0"
     inkscape:window-y="0"
     inkscape:window-maximized="1"
     inkscape:current-layer="svg3406" />
  <g
     id="g3416"
     transform="translate(-19.452411,-27.5)">
    <path
       style="fill:#d8ccd8"
       d="m 219.91665,470.42446 c -0.74614,-1.9522 -1.42751,-4.67446 -1.51416,-6.04946 -0.0866,-1.375 -0.70222,-2.87366 -1.36793,-3.33035 -0.6657,-0.4567 -1.4229,-9.73795 -1.68265,-20.625 -0.55712,-23.35166 -1.46174,-39.44614 -2.26209,-40.24649 -0.31553,-0.31554 -2.75197,0.0789 -5.41428,0.87657 -6.6443,1.99067 -18.92398,1.91788 -18.93074,-0.11226 -0.002,-0.85937 -1.4044,-12.53125 -3.11453,-25.9375 -1.71012,-13.40625 -3.98787,-32.8125 -5.06166,-43.125 -1.75,-16.80672 -4.36747,-29.65057 -9.93485,-48.75 -1.00201,-3.4375 -2.46306,-8.78125 -3.24679,-11.875 -0.78372,-3.09375 -2.2039,-7.47221 -3.15596,-9.72991 C 163.27896,259.26239 162.5,254.14725 162.5,250.15311 l 0,-7.26207 -10.77578,2.87751 c -5.92667,1.58264 -16.47355,3.81954 -23.4375,4.9709 -7.29968,1.20686 -15.29818,3.41704 -18.88736,5.21904 -3.77404,1.89478 -9.26654,3.36975 -13.947735,3.74551 -6.929122,0.5562 -7.780841,0.92719 -8.294221,3.61276 -0.314672,1.6461 -0.02053,3.33381 0.653663,3.75049 0.674187,0.41667 0.963186,3.4906 0.642221,6.83095 -0.409763,4.26447 -3.19e-4,6.90609 1.374706,8.86921 2.516066,3.59219 6.770279,15.93453 10.679226,30.98259 3.74246,14.40715 10.78918,36.93069 14.43061,46.1248 1.47034,3.71239 2.50417,7.62821 2.29741,8.70182 -0.42035,2.18273 3.25417,6.56258 7.29163,8.69125 1.45853,0.76899 6.17452,1.71748 10.47997,2.10775 15.11256,1.3699 27.49316,10.71914 27.49316,20.76154 0,2.01454 -2.5369,8.71405 -5.63755,14.88781 -4.83073,9.61857 -6.08298,11.22503 -8.75,11.22503 -1.71185,0 -3.11245,0.33257 -3.11245,0.73905 0,0.40649 2.98556,4.33594 6.63457,8.73213 13.94219,16.79698 19.27118,29.86816 13.4476,32.98485 -7.96522,4.26285 -20.88668,-0.58084 -36.73208,-13.76926 -10.19155,-8.48259 -11.81165,-10.50417 -21.43279,-26.74399 -9.582779,-16.17509 -10.463504,-18.23168 -11.109684,-25.94244 -0.813176,-9.70349 -5.8037,-21.00739 -9.266173,-20.98855 -1.191544,0.006 -7.510193,1.41232 -14.041443,3.12411 -6.53125,1.71179 -16.48449,3.47534 -22.118311,3.919 -10.089304,0.79454 -10.252106,0.76166 -10.828287,-2.18661 -0.321736,-1.64631 -2.370843,-16.49329 -4.553571,-32.99329 -2.182728,-16.5 -5.037208,-36.75 -6.343289,-45 -1.306081,-8.25 -3.200557,-22.03125 -4.209947,-30.625 -1.00939,-8.59375 -2.685659,-20.02988 -3.725042,-25.41361 -1.833089,-9.49492 -1.805813,-10.00123 0.909072,-16.875 l 2.798861,-7.08639 13.097758,-6.53856 c 23.334217,-11.64873 65.367506,-31.1461 74.347756,-34.48663 11.37601,-4.23171 32.97551,-10.33837 42.55534,-12.03135 13.84691,-2.44707 25.89681,-6.39182 38.95016,-12.75102 10.47685,-5.10402 16.61825,-7.09387 32.37824,-10.49074 21.51385,-4.63706 31.21177,-7.59064 46.11626,-14.0451 15.31065,-6.63035 24.28375,-7.97799 43.01803,-6.46074 8.94992,0.72485 22.23661,2.87026 30.82045,4.97663 8.29866,2.03638 18.43728,3.70251 22.53027,3.70251 6.57908,0 8.59756,-0.67015 17.41151,-5.78078 5.48337,-3.17942 20.8703,-11.5953 34.19323,-18.70195 13.32291,-7.10665 25.16502,-13.77327 26.31581,-14.81471 2.61288,-2.364618 26.43024,-10.960816 43.8357,-15.821247 17.32253,-4.83727 18.27294,-5.308513 19.10589,-9.473263 0.39134,-1.95667 3.56674,-7.931344 7.05646,-13.277054 3.48971,-5.34571 6.84856,-11.960948 7.4641,-14.70053 0.61555,-2.739581 1.9353,-6.235298 2.93278,-7.768261 0.99748,-1.532962 2.20521,-4.89658 2.68383,-7.474705 0.64489,-3.473715 1.48747,-4.6875 3.25394,-4.6875 2.04744,0 2.4362,1.088963 2.75585,7.71936 l 0.37215,7.71936 3.54284,-5.126045 c 3.78436,-5.47551 6.77746,-7.367374 8.66679,-5.478056 1.20063,1.200645 -2.34957,8.148749 -9.71203,19.007396 -2.13196,3.144358 -6.02574,11.863108 -8.65284,19.375 -2.6271,7.511891 -5.63907,14.643053 -6.69327,15.847024 -1.05421,1.203972 -5.62581,4.253159 -10.15911,6.775971 -4.53332,2.522811 -14.74984,8.6485 -22.7034,13.61264 -17.13404,10.69404 -25.77428,15.19516 -33.66825,17.53942 -3.19697,0.94939 -11.50219,5.01327 -18.45605,9.03082 -10.50084,6.06679 -15.14474,9.85514 -27.40404,22.3554 -8.11835,8.27791 -16.44814,16.21024 -18.51064,17.62737 -5.25859,3.61317 -2.92349,5.41368 8.03816,6.19799 8.06125,0.57677 9.26188,0.3418 13.5942,-2.6605 5.11382,-3.54388 12.32377,-4.31425 19.93839,-2.13041 3.04835,0.87426 4.05425,0.77046 4.05425,-0.41836 0,-1.20614 2.27096,-1.01897 9.57561,0.7892 11.6685,2.88837 17.32149,5.69626 22.48675,11.16938 7.24107,7.67267 9.18764,12.95224 9.18764,24.91915 0,10.04599 -0.25097,11.09994 -3.66672,15.39811 -6.99174,8.79795 -17.00915,14.405 -25.82013,14.45233 -4.2784,0.023 -5.35322,0.55719 -6.5922,3.27644 -1.21172,2.65944 -1.10097,3.96368 0.61033,7.1875 7.68412,14.47576 7.22082,11.92065 5.54855,30.6004 -1.70434,19.03795 -4.38227,32.28709 -7.1554,35.40151 -1.31113,1.47249 -1.43267,2.31348 -0.42443,2.9366 0.98865,0.61102 0.77529,1.5777 -0.71062,3.21962 -1.16793,1.29053 -2.64868,2.02184 -3.29057,1.62513 -0.6419,-0.39671 -1.47607,0.46031 -1.85373,1.90447 -0.37767,1.44418 -1.21225,2.62578 -1.85465,2.62578 -0.6424,0 -1.98212,1.94846 -2.97715,4.32991 -2.47359,5.92014 -5.43024,7.30729 -11.4124,5.35428 -3.94239,-1.28708 -5.32125,-2.69458 -7.90088,-8.06495 -1.78892,-3.72425 -3.97742,-6.53002 -5.11876,-6.5625 -1.09658,-0.0312 -2.93889,-1.10109 -4.09404,-2.37752 -1.85727,-2.05226 -1.88351,-2.50066 -0.22681,-3.8756 1.82499,-1.51461 2.84509,-5.28522 3.63075,-13.42048 0.21202,-2.19553 1.08794,-4.83824 1.94645,-5.8727 1.25112,-1.50752 1.23111,-2.55309 -0.10075,-5.26783 -1.51163,-3.08099 -2.77945,-4.08452 -8.53678,-6.7573 -1.03125,-0.47874 -2.33942,-3.34316 -2.90703,-6.36537 -0.56763,-3.02222 -1.28148,-6.76057 -1.58633,-8.30744 -0.30485,-1.54688 -1.36751,-2.8125 -2.36147,-2.8125 -3.08745,0 -4.3919,-4.43488 -4.47977,-15.23033 -0.0942,-11.58565 -0.59676,-11.05901 -4.99031,5.23033 -1.57617,5.84375 -4.21267,14.84375 -5.8589,20 -3.85639,12.07891 -6.65899,41.51715 -6.34855,66.68465 0.12849,10.41719 -0.22336,33.29427 -0.7819,50.83795 -0.92959,29.19859 -0.83642,32.04622 1.10105,33.65419 1.36109,1.1296 7.48348,2.14147 17.15255,2.83487 8.26978,0.59305 17.3759,1.94226 20.23581,2.99826 2.85993,1.056 7.44985,2.51974 10.19985,3.25275 6.41988,1.71122 7.67758,2.88913 5.66897,5.30935 -1.14003,1.37365 -3.982,1.9394 -9.88452,1.96773 -4.55645,0.0219 -9.18222,0.725 -10.27951,1.5625 -1.487,1.13496 -7.5352,1.32196 -23.75,0.73429 -20.72265,-0.75107 -31.13407,-2.51637 -27.62645,-4.68419 1.20734,-0.74618 1.12745,-2.13408 -0.36656,-6.36856 -2.42906,-6.88469 -6.51881,-43.99222 -8.06309,-73.15879 -1.39126,-26.27655 0.21471,-81.38295 2.8981,-99.44384 2.25414,-15.17182 1.6726,-18.43496 -3.68425,-20.6732 -2.26547,-0.94657 -5.70387,-3.195 -7.64087,-4.99649 -1.937,-1.80148 -6.89682,-4.97686 -11.02182,-7.0564 -4.125,-2.07953 -9.3477,-5.39513 -11.606,-7.36802 -2.25835,-1.97288 -5.10397,-3.58705 -6.32365,-3.58705 -1.21967,0 -3.30947,-0.82586 -4.644,-1.83525 -5.80177,-4.38824 -12.18625,-1.17421 -27.51092,13.84936 -5.5322,5.42349 -12.64207,11.78205 -15.7997,14.13015 -6.13873,4.56489 -18.44267,9.55244 -26.61579,10.78903 -4.45499,0.67404 -4.98229,1.12085 -4.8375,4.0991 0.0894,1.83844 0.43541,4.18636 0.76896,5.21761 3.63673,11.24366 8.62435,38.68074 9.77092,53.75 2.93563,38.58331 3.90397,52.12051 4.19635,58.66462 0.25014,5.59897 0.82846,7.1334 3.29776,8.75 6.48857,4.24793 11.0914,9.15888 12.45406,13.28778 0.7855,2.3801 1.94995,10.08635 2.58766,17.12502 0.63773,7.03867 1.74854,16.73508 2.4685,21.54758 2.69048,17.98445 2.69495,24.71727 0.0186,28.125 -2.40074,3.05689 -2.87784,3.13425 -21.89068,3.54946 l -19.43645,0.42448 -1.35661,-3.54948 z M 392.83482,237.5 c 2.50445,0 8.41518,-6.64166 8.41518,-9.45581 0,-3.98687 -2.24829,-5.24349 -10.25744,-5.73314 -6.43385,-0.39334 -7.19815,-0.17344 -7.80336,2.24517 -0.36901,1.47468 0.1687,5.06103 1.19494,7.96967 1.02622,2.90863 1.86586,6.69981 1.86586,8.42485 l 0,3.13641 2.59073,-3.29358 c 1.42489,-1.81146 3.22224,-3.29357 3.99409,-3.29357 z"
       id="path3428"
       inkscape:connector-curvature="0" />
    <path
       style="fill:#ceafcd"
       d="m 220.01162,470.65559 c -0.69388,-1.82509 -1.26162,-4.64109 -1.26162,-6.2578 0,-1.6167 -0.65722,-3.15853 -1.46049,-3.42629 -1.00524,-0.33507 -1.60846,-6.69922 -1.93517,-20.41666 -0.559,-23.46936 -1.46241,-39.57959 -2.26451,-40.38168 -0.31554,-0.31554 -2.75198,0.0789 -5.41429,0.87657 -6.6443,1.99067 -18.92398,1.91788 -18.93074,-0.11226 -0.002,-0.85937 -1.4044,-12.53125 -3.11453,-25.9375 -1.71012,-13.40625 -3.98787,-32.8125 -5.06166,-43.125 -1.75,-16.80672 -4.36747,-29.65057 -9.93485,-48.75 -1.00201,-3.4375 -2.46306,-8.78125 -3.24679,-11.875 -0.78372,-3.09375 -2.20389,-7.47221 -3.15596,-9.72991 C 163.27896,259.26239 162.5,254.14725 162.5,250.15311 l 0,-7.26207 -10.77578,2.87751 c -5.92667,1.58264 -16.47355,3.81954 -23.4375,4.9709 -7.29968,1.20686 -15.29818,3.41704 -18.88736,5.21904 -3.77404,1.89478 -9.26654,3.36975 -13.947735,3.74551 -6.929122,0.5562 -7.780841,0.92719 -8.294221,3.61276 -0.314672,1.6461 -0.02053,3.33381 0.653663,3.75049 0.674187,0.41667 0.963186,3.4906 0.642221,6.83095 -0.409763,4.26447 -3.19e-4,6.90609 1.374706,8.86921 2.516066,3.59219 6.770279,15.93453 10.679226,30.98259 3.74246,14.40715 10.78918,36.93069 14.43061,46.1248 1.47034,3.71239 2.50417,7.62821 2.29741,8.70182 -0.42035,2.18273 3.25417,6.56258 7.29163,8.69125 1.45853,0.76899 6.17452,1.71748 10.47997,2.10775 15.11256,1.3699 27.49316,10.71914 27.49316,20.76154 0,2.01454 -2.5369,8.71405 -5.63755,14.88781 -4.83073,9.61857 -6.08298,11.22503 -8.75,11.22503 -1.71185,0 -3.11245,0.33257 -3.11245,0.73905 0,0.40649 2.98556,4.33594 6.63457,8.73213 13.94219,16.79698 19.27118,29.86816 13.4476,32.98485 -7.65125,4.09482 -20.31103,-0.60275 -36.01567,-13.36408 -11.01477,-8.95043 -12.27627,-10.48479 -21.77415,-26.4839 -9.166091,-15.44023 -10.17585,-17.7972 -11.1152,-25.94508 -1.189747,-10.31982 -6.24091,-21.66964 -9.635707,-21.65118 -1.191544,0.006 -7.510193,1.41232 -14.041443,3.12411 -6.53125,1.71179 -16.48449,3.47534 -22.118311,3.919 -10.089304,0.79454 -10.252106,0.76166 -10.828287,-2.18661 -0.321736,-1.64631 -2.370843,-16.49329 -4.553571,-32.99329 -2.182728,-16.5 -5.037208,-36.75 -6.343289,-45 -1.306081,-8.25 -3.200557,-22.03125 -4.209947,-30.625 -1.00939,-8.59375 -2.685659,-20.02988 -3.725042,-25.41361 -1.833089,-9.49492 -1.805813,-10.00123 0.909072,-16.875 l 2.798861,-7.08639 13.097758,-6.53856 c 23.334217,-11.64873 65.367506,-31.1461 74.347756,-34.48663 11.37601,-4.23171 32.97551,-10.33837 42.55534,-12.03135 13.71136,-2.42312 25.75646,-6.34352 38.86014,-12.64807 8.50481,-4.09192 16.89188,-7.04528 24.50714,-8.62974 21.65743,-4.50618 36.16527,-8.6967 50.13364,-14.48089 19.91684,-8.2474 27.61013,-9.55615 46.96177,-7.9889 8.94992,0.72485 22.23661,2.87026 30.82045,4.97663 8.29866,2.03638 18.43728,3.70251 22.53027,3.70251 6.57908,0 8.59756,-0.67015 17.41151,-5.78078 5.48337,-3.17942 20.8703,-11.5953 34.19323,-18.70195 13.32291,-7.10665 25.16502,-13.77327 26.31581,-14.81471 2.61288,-2.364618 26.43024,-10.960816 43.8357,-15.821247 17.32253,-4.83727 18.27294,-5.308513 19.10589,-9.473263 0.39134,-1.95667 3.56674,-7.931344 7.05646,-13.277054 3.48971,-5.34571 6.84856,-11.960948 7.4641,-14.70053 0.61555,-2.739581 1.9353,-6.235298 2.93278,-7.768261 0.99748,-1.532962 2.20521,-4.89658 2.68383,-7.474705 0.64489,-3.473715 1.48747,-4.6875 3.25394,-4.6875 2.04744,0 2.4362,1.088963 2.75585,7.71936 l 0.37215,7.71936 3.54284,-5.126045 c 3.78436,-5.47551 6.77746,-7.367374 8.66679,-5.478056 1.20063,1.200645 -2.34957,8.148749 -9.71203,19.007396 -2.13196,3.144358 -6.02574,11.863108 -8.65284,19.375 -2.6271,7.511891 -5.63907,14.643053 -6.69327,15.847024 -1.05421,1.203972 -5.62581,4.253159 -10.15911,6.775971 -4.53332,2.522811 -14.74984,8.6485 -22.7034,13.61264 -17.13404,10.69404 -25.77428,15.19516 -33.66825,17.53942 -3.19697,0.94939 -11.50219,5.01327 -18.45605,9.03082 -10.50084,6.06679 -15.14474,9.85514 -27.40404,22.3554 -8.11835,8.27791 -16.44814,16.21024 -18.51064,17.62737 -5.25859,3.61317 -2.92349,5.41368 8.03816,6.19799 8.06125,0.57677 9.26188,0.3418 13.5942,-2.6605 5.11382,-3.54388 12.32377,-4.31425 19.93839,-2.13041 3.04835,0.87426 4.05425,0.77046 4.05425,-0.41836 0,-1.20614 2.27096,-1.01897 9.57561,0.7892 11.6685,2.88837 17.32149,5.69626 22.48675,11.16938 7.24107,7.67267 9.18764,12.95224 9.18764,24.91915 0,10.04599 -0.25097,11.09994 -3.66672,15.39811 -6.99174,8.79795 -17.00915,14.405 -25.82013,14.45233 -4.2784,0.023 -5.35322,0.55719 -6.5922,3.27644 -1.21172,2.65944 -1.10097,3.96368 0.61033,7.1875 7.68565,14.47863 7.22197,11.91727 5.53938,30.6004 -1.71003,18.98805 -4.54862,33.22375 -7.03647,35.28847 -0.89958,0.74659 -1.32484,2.16721 -0.94504,3.15695 0.8319,2.1679 -1.88552,5.79108 -3.56491,4.75315 -0.65589,-0.40535 -1.5015,0.4446 -1.87916,1.88877 -0.37767,1.44417 -1.21225,2.62577 -1.85465,2.62577 -0.6424,0 -1.98212,1.94846 -2.97715,4.32991 -2.47359,5.92014 -5.43024,7.30729 -11.4124,5.35428 -3.94239,-1.28708 -5.32125,-2.69458 -7.90088,-8.06495 -1.78892,-3.72425 -3.97742,-6.53002 -5.11876,-6.5625 -1.09658,-0.0312 -2.93889,-1.10109 -4.09404,-2.37752 -1.85727,-2.05226 -1.88351,-2.50066 -0.22681,-3.8756 1.82499,-1.51461 2.84509,-5.28522 3.63075,-13.42048 0.21202,-2.19553 1.08794,-4.83824 1.94645,-5.8727 1.25112,-1.50752 1.23111,-2.55309 -0.10075,-5.26783 -1.51163,-3.08099 -2.77945,-4.08452 -8.53678,-6.7573 -1.03125,-0.47874 -2.33942,-3.34316 -2.90703,-6.36537 -0.56763,-3.02222 -1.28148,-6.76057 -1.58633,-8.30744 C 393.95179,271.26562 392.88913,270 391.89516,270 388.69683,270 387.5,265.43506 387.5,253.23599 c 0,-11.66269 0.0765,-11.97583 3.4375,-14.05985 6.72597,-4.17058 10.3125,-8.30442 10.3125,-11.88619 0,-3.85871 -1.27561,-4.41945 -11.50433,-5.05716 -5.12843,-0.31974 -5.96541,-0.0235 -6.55336,2.31906 -0.37072,1.47707 0.21173,5.1353 1.29434,8.12937 2.63554,7.28887 1.68762,15.49708 -3.94881,34.19378 -2.4871,8.25 -5.25645,17.8125 -6.1541,21.25 -2.22823,8.53287 -4.47969,41.48423 -4.18501,61.25 0.13323,8.9375 -0.21243,30.60392 -0.76813,48.1476 -0.92477,29.19488 -0.83104,32.04644 1.10619,33.65419 1.36108,1.1296 7.48347,2.14147 17.15255,2.83487 8.26977,0.59305 17.3759,1.94226 20.23581,2.99826 2.85992,1.056 7.44985,2.51974 10.19985,3.25275 6.41987,1.71122 7.67758,2.88913 5.66896,5.30935 -1.14002,1.37365 -3.982,1.9394 -9.88451,1.96773 -4.55645,0.0219 -9.18222,0.725 -10.27951,1.5625 -1.487,1.13496 -7.5352,1.32196 -23.75,0.73429 -20.72265,-0.75107 -31.13408,-2.51637 -27.62645,-4.68419 1.20733,-0.74618 1.12745,-2.13408 -0.36656,-6.36856 -2.42907,-6.88469 -6.51882,-43.99222 -8.06309,-73.15879 -1.39126,-26.27655 0.21471,-81.38295 2.8981,-99.44384 2.25414,-15.17182 1.6726,-18.43496 -3.68425,-20.6732 -2.26548,-0.94657 -5.70388,-3.195 -7.64088,-4.99649 -1.937,-1.80148 -6.89681,-4.97686 -11.02181,-7.0564 -4.125,-2.07953 -9.3477,-5.39513 -11.606,-7.36802 -2.25829,-1.97288 -5.10391,-3.58705 -6.32359,-3.58705 -1.21967,0 -3.30947,-0.82586 -4.644,-1.83525 -5.80177,-4.38824 -12.18625,-1.17421 -27.51092,13.84936 -5.5322,5.42349 -12.64207,11.78205 -15.7997,14.13015 -6.13873,4.56489 -18.44267,9.55244 -26.61579,10.78903 -4.45499,0.67404 -4.98229,1.12085 -4.8375,4.0991 0.0894,1.83844 0.43541,4.18636 0.76896,5.21761 3.63673,11.24366 8.62435,38.68074 9.77092,53.75 2.93563,38.58331 3.90397,52.12051 4.19635,58.66462 0.25014,5.59897 0.82846,7.1334 3.29776,8.75 6.48857,4.24793 11.0914,9.15888 12.45406,13.28778 0.7855,2.3801 1.94995,10.08635 2.58766,17.12502 0.63773,7.03867 1.74854,16.73508 2.4685,21.54758 2.69048,17.98445 2.69495,24.71727 0.0186,28.125 -2.40074,3.05689 -2.87784,3.13425 -21.89068,3.54946 l -19.43645,0.42448 -1.26164,-3.31835 z"
       id="path3426"
       inkscape:connector-curvature="0" />
    <path
       style="fill:#b589b4"
       d="m 220.01162,470.65559 c -0.69388,-1.82509 -1.26162,-4.64109 -1.26162,-6.2578 0,-1.6167 -0.65722,-3.15853 -1.46049,-3.42629 -1.00524,-0.33507 -1.60846,-6.69922 -1.93517,-20.41666 -0.559,-23.46936 -1.46241,-39.57959 -2.26451,-40.38168 -0.31554,-0.31554 -2.75198,0.0789 -5.41429,0.87657 -6.6443,1.99067 -18.92398,1.91788 -18.93074,-0.11226 -0.002,-0.85937 -1.4044,-12.53125 -3.11453,-25.9375 -1.71012,-13.40625 -3.98787,-32.8125 -5.06166,-43.125 -1.75,-16.80672 -4.36747,-29.65057 -9.93485,-48.75 -1.00201,-3.4375 -2.46306,-8.78125 -3.24679,-11.875 -0.78372,-3.09375 -2.20389,-7.47221 -3.15596,-9.72991 C 163.27896,259.26239 162.5,254.14725 162.5,250.15311 l 0,-7.26207 -10.77578,2.87751 c -5.92667,1.58264 -16.47355,3.81954 -23.4375,4.9709 -7.29968,1.20686 -15.29818,3.41704 -18.88736,5.21904 -3.77404,1.89478 -9.26654,3.36975 -13.947735,3.74551 -6.929122,0.5562 -7.780841,0.92719 -8.294221,3.61276 -0.314672,1.6461 -0.02053,3.33381 0.653663,3.75049 0.674187,0.41667 0.963186,3.4906 0.642221,6.83095 -0.409763,4.26447 -3.19e-4,6.90609 1.374706,8.86921 2.516066,3.59219 6.770279,15.93453 10.679226,30.98259 3.74246,14.40715 10.78918,36.93069 14.43061,46.1248 1.47034,3.71239 2.50417,7.62821 2.29741,8.70182 -0.42035,2.18273 3.25417,6.56258 7.29163,8.69125 1.45853,0.76899 6.17452,1.71748 10.47997,2.10775 15.11256,1.3699 27.49316,10.71914 27.49316,20.76154 0,2.01454 -2.5369,8.71405 -5.63755,14.88781 -4.83073,9.61857 -6.08298,11.22503 -8.75,11.22503 -1.71185,0 -3.11245,0.33257 -3.11245,0.73905 0,0.40649 2.98556,4.33594 6.63457,8.73213 13.94219,16.79698 19.27118,29.86816 13.4476,32.98485 -7.65125,4.09482 -20.31103,-0.60275 -36.01567,-13.36408 -11.02471,-8.9585 -12.26287,-10.4658 -21.68955,-26.40432 -9.004752,-15.22515 -10.112146,-17.80867 -11.15327,-26.02022 -1.327281,-10.46853 -6.337166,-21.67382 -9.682237,-21.65562 -1.191544,0.006 -7.510193,1.41232 -14.041443,3.12411 -6.53125,1.71179 -16.48449,3.47534 -22.118311,3.919 -10.089304,0.79454 -10.252106,0.76166 -10.828286,-2.18661 -0.321737,-1.64631 -2.370844,-16.49329 -4.553572,-32.99329 -2.182728,-16.5 -5.037208,-36.75 -6.343289,-45 -1.306081,-8.25 -3.200557,-22.03125 -4.209947,-30.625 -1.00939,-8.59375 -2.685659,-20.02988 -3.725042,-25.41361 -1.833089,-9.49492 -1.805813,-10.00123 0.909072,-16.875 l 2.798861,-7.08639 13.097758,-6.53856 c 23.334217,-11.64873 65.367506,-31.1461 74.347756,-34.48663 11.37601,-4.23171 32.97551,-10.33837 42.55534,-12.03135 13.71136,-2.42312 25.75646,-6.34352 38.86014,-12.64807 8.50481,-4.09192 16.89188,-7.04528 24.50714,-8.62974 21.65743,-4.50618 36.16527,-8.6967 50.13364,-14.48089 19.91684,-8.2474 27.61013,-9.55615 46.96177,-7.9889 8.94992,0.72485 22.23661,2.87026 30.82045,4.97663 8.29866,2.03638 18.43728,3.70251 22.53027,3.70251 6.57908,0 8.59756,-0.67015 17.41151,-5.78078 5.48337,-3.17942 20.8703,-11.5953 34.19323,-18.70195 13.32291,-7.10665 25.16502,-13.77327 26.31581,-14.81471 2.61288,-2.364618 26.43024,-10.960816 43.8357,-15.821247 17.32253,-4.83727 18.27294,-5.308513 19.10589,-9.473263 0.39134,-1.95667 3.56674,-7.931344 7.05646,-13.277054 3.48971,-5.34571 6.84856,-11.960948 7.4641,-14.70053 0.61555,-2.739581 1.9353,-6.235298 2.93278,-7.768261 0.99748,-1.532962 2.20521,-4.89658 2.68383,-7.474705 0.64489,-3.473715 1.48747,-4.6875 3.25394,-4.6875 2.04744,0 2.4362,1.088963 2.75585,7.71936 l 0.37215,7.71936 3.54284,-5.126045 c 3.78436,-5.47551 6.77746,-7.367374 8.66679,-5.478056 1.20063,1.200645 -2.34957,8.148749 -9.71203,19.007396 -2.13196,3.144358 -6.02574,11.863108 -8.65284,19.375 -2.6271,7.511891 -5.63907,14.643053 -6.69327,15.847024 -1.05421,1.203972 -5.62581,4.253159 -10.15911,6.775971 -4.53332,2.522811 -14.74984,8.6485 -22.7034,13.61264 -17.13404,10.69404 -25.77428,15.19516 -33.66825,17.53942 -3.19697,0.94939 -11.50219,5.01327 -18.45605,9.03082 -10.50084,6.06679 -15.14474,9.85514 -27.40404,22.3554 -8.11835,8.27791 -16.44814,16.21024 -18.51064,17.62737 -5.25859,3.61317 -2.92349,5.41368 8.03816,6.19799 8.06125,0.57677 9.26188,0.3418 13.5942,-2.6605 5.11382,-3.54388 12.32377,-4.31425 19.93839,-2.13041 3.04835,0.87426 4.05425,0.77046 4.05425,-0.41836 0,-1.20614 2.27096,-1.01897 9.57561,0.7892 11.6685,2.88837 17.32149,5.69626 22.48675,11.16938 7.24107,7.67267 9.18764,12.95224 9.18764,24.91915 0,10.04599 -0.25097,11.09994 -3.66672,15.39811 -6.99174,8.79795 -17.00915,14.405 -25.82013,14.45233 -4.2784,0.023 -5.35322,0.55719 -6.5922,3.27644 -1.21172,2.65944 -1.10097,3.96368 0.61033,7.1875 7.68565,14.47863 7.22197,11.91727 5.53938,30.6004 -1.71003,18.98805 -4.54862,33.22375 -7.03647,35.28847 -0.89958,0.74659 -1.32484,2.16721 -0.94504,3.15695 0.8319,2.1679 -1.88552,5.79108 -3.56491,4.75315 -0.65589,-0.40535 -1.5015,0.4446 -1.87916,1.88877 -0.37767,1.44417 -1.21225,2.62577 -1.85465,2.62577 -0.6424,0 -1.98212,1.94846 -2.97715,4.32991 -2.47359,5.92014 -5.43024,7.30729 -11.4124,5.35428 -3.94239,-1.28708 -5.32125,-2.69458 -7.90088,-8.06495 -1.78892,-3.72425 -3.97742,-6.53002 -5.11876,-6.5625 -1.09658,-0.0312 -2.93889,-1.10109 -4.09404,-2.37752 -1.85727,-2.05226 -1.88351,-2.50066 -0.22681,-3.8756 1.82499,-1.51461 2.84509,-5.28522 3.63075,-13.42048 0.21202,-2.19553 1.08794,-4.83824 1.94645,-5.8727 1.25112,-1.50752 1.23111,-2.55309 -0.10075,-5.26783 -1.51163,-3.08099 -2.77945,-4.08452 -8.53678,-6.7573 -1.03125,-0.47874 -2.33942,-3.34316 -2.90703,-6.36537 -0.56763,-3.02222 -1.28148,-6.76057 -1.58633,-8.30744 C 393.95179,271.26562 392.88913,270 391.89516,270 388.69611,270 387.5,265.43422 387.5,253.22286 l 0,-11.9415 4.6875,-2.97855 c 6.8985,-4.38346 9.3102,-7.55493 8.8437,-11.62977 -0.3928,-3.43102 -0.68265,-3.56865 -8.78804,-4.17304 -7.7862,-0.58059 -8.42957,-0.43446 -9.05337,2.05623 -0.36934,1.47467 0.21425,5.13092 1.29686,8.125 2.63554,7.28886 1.68762,15.49707 -3.94881,34.19377 -2.4871,8.25 -5.25645,17.8125 -6.1541,21.25 -2.22823,8.53288 -4.47969,41.48423 -4.18502,61.25 0.13324,8.9375 -0.21242,30.60392 -0.76812,48.1476 -0.92478,29.19488 -0.83104,32.04644 1.10619,33.65419 1.36108,1.1296 7.48347,2.14147 17.15255,2.83487 8.26977,0.59305 17.3759,1.94226 20.23581,2.99826 2.85992,1.056 7.44985,2.51974 10.19985,3.25275 6.41987,1.71122 7.67757,2.88913 5.66896,5.30935 -1.14002,1.37365 -3.982,1.9394 -9.88451,1.96773 -4.55645,0.0219 -9.18223,0.725 -10.27951,1.5625 -1.487,1.13496 -7.5352,1.32196 -23.75,0.73429 -20.72265,-0.75107 -31.13408,-2.51637 -27.62645,-4.68419 1.20733,-0.74618 1.12745,-2.13408 -0.36657,-6.36856 -2.42906,-6.88469 -6.51881,-43.99222 -8.06308,-73.15879 -1.39127,-26.27655 0.21471,-81.38295 2.8981,-99.44384 2.25413,-15.17182 1.6726,-18.43496 -3.68425,-20.6732 -2.26548,-0.94657 -5.70388,-3.195 -7.64088,-4.99649 -1.937,-1.80148 -6.89681,-4.97686 -11.02181,-7.0564 -4.125,-2.07953 -9.3477,-5.39513 -11.606,-7.36802 -2.25829,-1.97288 -5.10391,-3.58705 -6.32359,-3.58705 -1.21967,0 -3.30947,-0.82586 -4.644,-1.83525 -5.80177,-4.38824 -12.18625,-1.17421 -27.51092,13.84936 -5.5322,5.42349 -12.64207,11.78205 -15.7997,14.13015 -6.13873,4.56489 -18.44267,9.55244 -26.61579,10.78903 -4.45499,0.67404 -4.98229,1.12085 -4.8375,4.0991 0.0894,1.83844 0.43541,4.18636 0.76896,5.21761 3.63673,11.24366 8.62435,38.68074 9.77092,53.75 2.93563,38.58331 3.90397,52.12051 4.19635,58.66462 0.25014,5.59897 0.82846,7.1334 3.29776,8.75 6.48857,4.24793 11.0914,9.15888 12.45406,13.28778 0.7855,2.3801 1.94995,10.08635 2.58766,17.12502 0.63773,7.03867 1.74854,16.73508 2.4685,21.54758 2.69048,17.98445 2.69495,24.71727 0.0186,28.125 -2.40074,3.05689 -2.87784,3.13425 -21.89068,3.54946 l -19.43645,0.42448 -1.26164,-3.31835 z"
       id="path3424"
       inkscape:connector-curvature="0" />
    <path
       style="fill:#a66ba5"
       d="m 220.01162,470.65559 c -0.69388,-1.82509 -1.26162,-4.64109 -1.26162,-6.2578 0,-1.6167 -0.65722,-3.15853 -1.46049,-3.42629 -1.00524,-0.33507 -1.60846,-6.69922 -1.93517,-20.41666 -0.559,-23.46936 -1.46241,-39.57959 -2.26451,-40.38168 -0.31554,-0.31554 -2.75198,0.0789 -5.41429,0.87657 -6.6443,1.99067 -18.92398,1.91788 -18.93074,-0.11226 -0.002,-0.85937 -1.4044,-12.53125 -3.11453,-25.9375 -1.71012,-13.40625 -3.98787,-32.8125 -5.06166,-43.125 -1.75,-16.80672 -4.36747,-29.65057 -9.93485,-48.75 -1.00201,-3.4375 -2.46306,-8.78125 -3.24679,-11.875 -0.78372,-3.09375 -2.20389,-7.47221 -3.15596,-9.72991 C 163.27896,259.26239 162.5,254.14725 162.5,250.15311 l 0,-7.26207 -10.77578,2.87751 c -5.92667,1.58264 -16.47355,3.81954 -23.4375,4.9709 -7.29968,1.20686 -15.29818,3.41704 -18.88736,5.21904 -3.77404,1.89478 -9.26654,3.36975 -13.947735,3.74551 -6.929122,0.5562 -7.780841,0.92719 -8.294221,3.61276 -0.314672,1.6461 -0.02053,3.33381 0.653663,3.75049 0.674187,0.41667 0.963186,3.4906 0.642221,6.83095 -0.409763,4.26447 -3.19e-4,6.90609 1.374706,8.86921 2.516066,3.59219 6.770279,15.93453 10.679226,30.98259 3.74246,14.40715 10.78918,36.93069 14.43061,46.1248 1.47034,3.71239 2.50417,7.62821 2.29741,8.70182 -0.42035,2.18273 3.25417,6.56258 7.29163,8.69125 1.45853,0.76899 6.17452,1.71748 10.47997,2.10775 15.11256,1.3699 27.49316,10.71914 27.49316,20.76154 0,2.01454 -2.5369,8.71405 -5.63755,14.88781 -4.83073,9.61857 -6.08298,11.22503 -8.75,11.22503 -1.71185,0 -3.11245,0.33257 -3.11245,0.73905 0,0.40649 2.98556,4.33594 6.63457,8.73213 13.94219,16.79698 19.27118,29.86816 13.4476,32.98485 -7.72296,4.1332 -20.39416,-0.67638 -36.61321,-13.8972 -12.08045,-9.84729 -11.37052,-8.8825 -28.16033,-38.26979 -1.832304,-3.20709 -3.484025,-8.80375 -4.139985,-14.02783 -1.262081,-10.05127 -6.343576,-21.26728 -9.627202,-21.24942 -1.191544,0.006 -7.510193,1.41232 -14.041443,3.12411 -6.53125,1.71179 -16.48449,3.47534 -22.118311,3.919 -10.089304,0.79454 -10.252106,0.76166 -10.828286,-2.18661 -0.321737,-1.64631 -2.370844,-16.49329 -4.553572,-32.99329 -2.182728,-16.5 -5.037208,-36.75 -6.343289,-45 -1.306081,-8.25 -3.200557,-22.03125 -4.209947,-30.625 -1.00939,-8.59375 -2.685659,-20.02988 -3.725042,-25.41361 -1.833089,-9.49492 -1.805813,-10.00123 0.909072,-16.875 l 2.798861,-7.08639 13.097758,-6.53856 C 60.874735,209.93109 102.89725,190.43937 111.875,187.101 c 12.4729,-4.63806 29.26376,-9.34198 43.75,-12.25644 14.20791,-2.85847 29.46945,-7.69059 35,-11.08169 5.79071,-3.55063 19.19775,-8.4537 27.5,-10.05697 16.96452,-3.27609 36.83094,-9.02198 49.88427,-14.42783 19.83533,-8.21453 27.54653,-9.5233 46.88376,-7.95721 8.94992,0.72485 22.23661,2.87026 30.82045,4.97663 8.29866,2.03638 18.43728,3.70251 22.53027,3.70251 6.57908,0 8.59756,-0.67015 17.41151,-5.78078 5.48337,-3.17942 20.8703,-11.5953 34.19323,-18.70195 13.32291,-7.10665 25.16502,-13.77327 26.31581,-14.81471 2.61288,-2.364618 26.43024,-10.960816 43.8357,-15.821247 17.32253,-4.83727 18.27294,-5.308513 19.10589,-9.473263 0.39134,-1.95667 3.56674,-7.931344 7.05646,-13.277054 3.48971,-5.34571 6.84856,-11.960948 7.4641,-14.70053 0.61555,-2.739581 1.9353,-6.235298 2.93278,-7.768261 0.99748,-1.532962 2.20521,-4.89658 2.68383,-7.474705 0.64489,-3.473715 1.48747,-4.6875 3.25394,-4.6875 2.04744,0 2.4362,1.088963 2.75585,7.71936 l 0.37215,7.71936 3.54284,-5.126045 c 3.78436,-5.47551 6.77746,-7.367374 8.66679,-5.478056 1.20063,1.200645 -2.34957,8.148749 -9.71203,19.007396 -2.13196,3.144358 -6.02574,11.863108 -8.65284,19.375 -2.6271,7.511891 -5.63907,14.643053 -6.69327,15.847024 -1.05421,1.203972 -5.62581,4.253159 -10.15911,6.775971 -4.53332,2.522811 -14.74984,8.6485 -22.7034,13.61264 -17.13404,10.69404 -25.77428,15.19516 -33.66825,17.53942 -3.19697,0.94939 -11.50219,5.01327 -18.45605,9.03082 -10.50084,6.06679 -15.14474,9.85514 -27.40404,22.3554 -8.11835,8.27791 -16.44814,16.21024 -18.51064,17.62737 -5.25859,3.61317 -2.92349,5.41368 8.03816,6.19799 8.06125,0.57677 9.26188,0.3418 13.5942,-2.6605 5.11382,-3.54388 12.32377,-4.31425 19.93839,-2.13041 3.04835,0.87426 4.05425,0.77046 4.05425,-0.41836 0,-1.20614 2.27096,-1.01897 9.57561,0.7892 11.6685,2.88837 17.32149,5.69626 22.48675,11.16938 7.24107,7.67267 9.18764,12.95224 9.18764,24.91915 0,10.04599 -0.25097,11.09994 -3.66672,15.39811 -6.99174,8.79795 -17.00915,14.405 -25.82013,14.45233 -4.2784,0.023 -5.35322,0.55719 -6.5922,3.27644 -1.21172,2.65944 -1.10097,3.96368 0.61033,7.1875 7.68565,14.47863 7.22197,11.91727 5.53938,30.6004 -1.71003,18.98805 -4.54862,33.22375 -7.03647,35.28847 -0.89958,0.74659 -1.32484,2.16721 -0.94504,3.15695 0.8319,2.1679 -1.88552,5.79108 -3.56491,4.75315 -0.65589,-0.40535 -1.5015,0.4446 -1.87916,1.88877 -0.37767,1.44417 -1.21225,2.62577 -1.85465,2.62577 -0.6424,0 -1.98212,1.94846 -2.97715,4.32991 -2.47359,5.92014 -5.43024,7.30729 -11.4124,5.35428 -3.94239,-1.28708 -5.32125,-2.69458 -7.90088,-8.06495 -1.78892,-3.72425 -3.97742,-6.53002 -5.11876,-6.5625 -1.09658,-0.0312 -2.93889,-1.10109 -4.09404,-2.37752 -1.85727,-2.05226 -1.88351,-2.50066 -0.22681,-3.8756 1.82499,-1.51461 2.84509,-5.28522 3.63075,-13.42048 0.21202,-2.19553 1.08794,-4.83824 1.94645,-5.8727 1.25112,-1.50752 1.23111,-2.55309 -0.10075,-5.26783 -1.51163,-3.08099 -2.77945,-4.08452 -8.53678,-6.7573 -1.03125,-0.47874 -2.33942,-3.34316 -2.90703,-6.36537 -0.56763,-3.02222 -1.28148,-6.76057 -1.58633,-8.30744 -0.30485,-1.54688 -1.36751,-2.8125 -2.36147,-2.8125 -3.33934,0 -4.49195,-4.79038 -4.1279,-17.15611 0.33201,-11.27764 0.56571,-12.25488 3.24995,-13.59017 6.0293,-2.9993 10.3686,-8.3725 9.97792,-12.35531 -0.36432,-3.71415 -0.50176,-3.78322 -8.75197,-4.39841 -7.7862,-0.58059 -8.42958,-0.43446 -9.05338,2.05622 -0.36934,1.47468 0.21425,5.13093 1.29686,8.125 2.63554,7.28887 1.68763,15.49708 -3.94881,34.19378 -2.4871,8.25 -5.25645,17.8125 -6.1541,21.25 -2.22822,8.53287 -4.47969,41.48422 -4.18501,61.25 0.13324,8.9375 -0.21243,30.60392 -0.76813,48.1476 -0.92477,29.19488 -0.83103,32.04644 1.10619,33.65419 1.36109,1.1296 7.48348,2.14147 17.15255,2.83487 8.26978,0.59305 17.3759,1.94226 20.23581,2.99826 2.85993,1.056 7.44985,2.51974 10.19985,3.25275 6.41988,1.71122 7.67758,2.88913 5.66897,5.30935 -1.14003,1.37365 -3.982,1.9394 -9.88452,1.96773 -4.55645,0.0219 -9.18222,0.725 -10.27951,1.5625 -1.487,1.13496 -7.5352,1.32196 -23.75,0.73429 -20.72265,-0.75107 -31.13407,-2.51637 -27.62645,-4.68419 1.20734,-0.74618 1.12745,-2.13408 -0.36656,-6.36856 -2.42906,-6.88469 -6.51881,-43.99222 -8.06309,-73.15879 -1.39126,-26.27655 0.21471,-81.38295 2.8981,-99.44384 2.25414,-15.17182 1.6726,-18.43496 -3.68425,-20.6732 -2.26547,-0.94657 -5.70387,-3.195 -7.64087,-4.99649 -1.937,-1.80148 -6.89682,-4.97686 -11.02182,-7.0564 -4.125,-2.07953 -9.3477,-5.39513 -11.606,-7.36802 -2.25835,-1.97288 -5.10397,-3.58705 -6.32365,-3.58705 -1.21967,0 -3.30947,-0.82586 -4.644,-1.83525 -5.80177,-4.38824 -12.18625,-1.17421 -27.51092,13.84936 -5.5322,5.42349 -12.64207,11.78205 -15.7997,14.13015 -6.13873,4.56489 -18.44267,9.55244 -26.61579,10.78903 -4.45499,0.67404 -4.98229,1.12085 -4.8375,4.0991 0.0894,1.83844 0.43541,4.18636 0.76896,5.21761 3.63673,11.24366 8.62435,38.68074 9.77092,53.75 2.93563,38.58331 3.90397,52.12051 4.19635,58.66462 0.25014,5.59897 0.82846,7.1334 3.29776,8.75 6.48857,4.24793 11.0914,9.15888 12.45406,13.28778 0.7855,2.3801 1.94995,10.08635 2.58766,17.12502 0.63773,7.03867 1.74854,16.73508 2.4685,21.54758 2.69048,17.98445 2.69495,24.71727 0.0186,28.125 -2.40074,3.05689 -2.87784,3.13425 -21.89068,3.54946 l -19.43645,0.42448 -1.26164,-3.31835 z"
       id="path3422"
       inkscape:connector-curvature="0" />
    <path
       style="fill:#9a4a99"
       d="m 220.01162,470.65559 c -0.69388,-1.82509 -1.26162,-4.64109 -1.26162,-6.2578 0,-1.6167 -0.65722,-3.15853 -1.46049,-3.42629 -1.00524,-0.33507 -1.60846,-6.69922 -1.93517,-20.41666 -0.559,-23.46936 -1.46241,-39.57959 -2.26451,-40.38168 -0.31554,-0.31554 -2.75198,0.0789 -5.41429,0.87657 -6.6443,1.99067 -18.92398,1.91788 -18.93074,-0.11226 -0.002,-0.85937 -1.4044,-12.53125 -3.11453,-25.9375 -1.71012,-13.40625 -3.98787,-32.8125 -5.06166,-43.125 -1.75,-16.80672 -4.36747,-29.65057 -9.93485,-48.75 -1.00201,-3.4375 -2.46306,-8.78125 -3.24679,-11.875 -0.78372,-3.09375 -2.20389,-7.47221 -3.15596,-9.72991 C 163.27896,259.26239 162.5,254.14725 162.5,250.15311 l 0,-7.26207 -10.77578,2.87751 c -5.92667,1.58264 -16.47355,3.81954 -23.4375,4.9709 -7.29968,1.20686 -15.29818,3.41704 -18.88736,5.21904 -3.77404,1.89478 -9.26654,3.36975 -13.947735,3.74551 -6.929122,0.5562 -7.780841,0.92719 -8.294221,3.61276 -0.314672,1.6461 -0.02053,3.33381 0.653663,3.75049 0.674187,0.41667 0.963186,3.4906 0.642221,6.83095 -0.409763,4.26447 -3.19e-4,6.90609 1.374706,8.86921 2.516066,3.59219 6.770279,15.93453 10.679226,30.98259 3.74246,14.40715 10.78918,36.93069 14.43061,46.1248 1.47034,3.71239 2.50417,7.62821 2.29741,8.70182 -0.42035,2.18273 3.25417,6.56258 7.29163,8.69125 1.45853,0.76899 6.17452,1.71748 10.47997,2.10775 15.11256,1.3699 27.49316,10.71914 27.49316,20.76154 0,2.01454 -2.5369,8.71405 -5.63755,14.88781 -4.83073,9.61857 -6.08298,11.22503 -8.75,11.22503 -1.71185,0 -3.11245,0.33257 -3.11245,0.73905 0,0.40649 2.98556,4.33594 6.63457,8.73213 13.94219,16.79698 19.27118,29.86816 13.4476,32.98485 -7.29862,3.9061 -20.36261,-1.02207 -36.16972,-13.64443 -10.95142,-8.74498 -12.85398,-10.94959 -18.93117,-21.9366 -1.52109,-2.75 -4.95402,-8.69298 -7.62873,-13.2066 -3.710817,-6.26207 -5.122821,-10.27492 -5.959178,-16.9357 -1.271182,-10.12374 -6.539471,-21.73894 -9.851929,-21.72091 -1.191544,0.006 -7.510193,1.41232 -14.041443,3.12411 -6.53125,1.71179 -16.48449,3.47534 -22.118311,3.919 -10.089304,0.79454 -10.252106,0.76166 -10.828287,-2.18661 -0.321736,-1.64631 -2.370843,-16.49329 -4.553571,-32.99329 -2.182728,-16.5 -5.037208,-36.75 -6.343289,-45 -1.306081,-8.25 -3.200557,-22.03125 -4.209947,-30.625 -1.00939,-8.59375 -2.685659,-20.02988 -3.725042,-25.41361 -1.833089,-9.49492 -1.805813,-10.00123 0.909072,-16.875 l 2.798861,-7.08639 13.097758,-6.53856 C 60.874735,209.93109 102.89725,190.43937 111.875,187.101 c 12.4729,-4.63806 29.26376,-9.34198 43.75,-12.25644 13.42804,-2.70157 29.6165,-7.69797 33.87187,-10.45419 5.69699,-3.68996 19.15784,-8.59631 29.25313,-10.66247 19.30461,-3.95101 35.05401,-8.56816 49.18126,-14.41814 19.91684,-8.2474 27.61013,-9.55615 46.96177,-7.9889 8.94992,0.72485 22.23661,2.87027 30.82045,4.97663 8.29866,2.03638 18.43728,3.70251 22.53027,3.70251 6.57908,0 8.59756,-0.67015 17.41151,-5.78078 5.48337,-3.17942 20.8703,-11.5953 34.19323,-18.70195 13.32291,-7.10665 25.16502,-13.77327 26.31581,-14.81471 2.61288,-2.364618 26.43024,-10.960816 43.8357,-15.821247 17.32253,-4.83727 18.27294,-5.308513 19.10589,-9.473263 0.39134,-1.95667 3.56674,-7.931344 7.05646,-13.277054 3.48971,-5.34571 6.84856,-11.960948 7.4641,-14.70053 0.61555,-2.739581 1.9353,-6.235298 2.93278,-7.768261 0.99748,-1.532962 2.20521,-4.89658 2.68383,-7.474705 0.64489,-3.473715 1.48747,-4.6875 3.25394,-4.6875 2.04744,0 2.4362,1.088963 2.75585,7.71936 l 0.37215,7.71936 3.54284,-5.126045 c 3.78436,-5.47551 6.77746,-7.367374 8.66679,-5.478056 1.20063,1.200645 -2.34957,8.148749 -9.71203,19.007396 -2.13196,3.144358 -6.02574,11.863108 -8.65284,19.375 -2.6271,7.511891 -5.63907,14.643053 -6.69327,15.847024 -1.05421,1.203972 -5.62581,4.253159 -10.15911,6.775971 -4.53332,2.522811 -14.74984,8.6485 -22.7034,13.61264 -17.13404,10.69404 -25.77428,15.19516 -33.66825,17.53942 -3.19697,0.94939 -11.50219,5.01327 -18.45605,9.03082 -10.50084,6.06679 -15.14474,9.85514 -27.40404,22.3554 -8.11835,8.27791 -16.44814,16.21024 -18.51064,17.62737 -5.25859,3.61317 -2.92349,5.41368 8.03816,6.19799 8.06125,0.57677 9.26188,0.3418 13.5942,-2.6605 5.11382,-3.54388 12.32377,-4.31425 19.93839,-2.13041 3.04835,0.87426 4.05425,0.77046 4.05425,-0.41836 0,-1.20614 2.27096,-1.01897 9.57561,0.7892 11.6685,2.88837 17.32149,5.69626 22.48675,11.16938 7.24107,7.67267 9.18764,12.95224 9.18764,24.91915 0,10.04599 -0.25097,11.09994 -3.66672,15.39811 -6.99174,8.79795 -17.00915,14.405 -25.82013,14.45233 -4.2784,0.023 -5.35322,0.55719 -6.5922,3.27644 -1.21172,2.65944 -1.10097,3.96368 0.61033,7.1875 7.68412,14.47576 7.22082,11.92065 5.54855,30.6004 -1.68804,18.85587 -4.37853,32.28212 -7.0767,35.31455 -0.96722,1.08704 -1.43053,2.30449 -1.02958,2.70545 1.18223,1.18222 -1.97997,6.08669 -3.3704,5.22735 -0.69929,-0.43218 -1.58041,0.39582 -1.95807,1.83999 -0.37767,1.44417 -1.21225,2.62577 -1.85465,2.62577 -0.6424,0 -1.98212,1.94846 -2.97715,4.32991 -2.47359,5.92014 -5.43024,7.30729 -11.4124,5.35428 -3.94239,-1.28708 -5.32125,-2.69458 -7.90088,-8.06495 -1.78892,-3.72425 -3.97742,-6.53002 -5.11876,-6.5625 -1.09658,-0.0312 -2.93889,-1.10109 -4.09404,-2.37752 -1.85727,-2.05226 -1.88351,-2.50066 -0.22681,-3.8756 1.82499,-1.51461 2.84509,-5.28522 3.63075,-13.42048 0.21202,-2.19553 1.08794,-4.83824 1.94645,-5.8727 1.25112,-1.50752 1.23111,-2.55309 -0.10075,-5.26783 -1.51163,-3.08099 -2.77945,-4.08452 -8.53678,-6.7573 -1.03125,-0.47874 -2.33942,-3.34316 -2.90703,-6.36537 -0.56763,-3.02222 -1.28148,-6.76057 -1.58633,-8.30744 -0.30485,-1.54688 -1.36751,-2.8125 -2.36147,-2.8125 -3.33934,0 -4.49195,-4.79038 -4.1279,-17.15611 0.33077,-11.23562 0.57323,-12.25862 3.2171,-13.57378 3.99187,-1.98572 9.10558,-6.92016 10.25462,-9.89511 1.84473,-4.77614 -0.58681,-6.62803 -9.2964,-7.08025 -7.39911,-0.38418 -8.14102,-0.19253 -8.75429,2.26147 -0.36851,1.47468 0.21574,5.13093 1.29835,8.125 2.63554,7.28887 1.68763,15.49708 -3.94881,34.19378 -2.4871,8.25 -5.25645,17.8125 -6.1541,21.25 -2.22822,8.53287 -4.47969,41.48423 -4.18501,61.25 0.13324,8.9375 -0.21243,30.60392 -0.76813,48.1476 -0.92477,29.19488 -0.83103,32.04644 1.10619,33.65419 1.36109,1.1296 7.48348,2.14147 17.15255,2.83487 8.26978,0.59305 17.3759,1.94226 20.23581,2.99826 2.85993,1.056 7.44985,2.51974 10.19985,3.25275 6.41988,1.71122 7.67758,2.88913 5.66897,5.30935 -1.14003,1.37365 -3.982,1.9394 -9.88452,1.96773 -4.55645,0.0219 -9.18222,0.725 -10.27951,1.5625 -1.487,1.13496 -7.5352,1.32196 -23.75,0.73429 -20.72265,-0.75107 -31.13407,-2.51637 -27.62645,-4.68419 1.20734,-0.74618 1.12745,-2.13408 -0.36656,-6.36856 -2.42906,-6.88469 -6.51881,-43.99222 -8.06309,-73.15879 -1.39126,-26.27655 0.21471,-81.38295 2.8981,-99.44384 2.25414,-15.17182 1.6726,-18.43496 -3.68425,-20.6732 -2.26547,-0.94657 -5.70387,-3.195 -7.64087,-4.99649 -1.937,-1.80148 -6.89682,-4.97686 -11.02182,-7.0564 -4.125,-2.07953 -9.3477,-5.39513 -11.606,-7.36802 -2.25835,-1.97288 -5.10397,-3.58705 -6.32365,-3.58705 -1.21967,0 -3.30947,-0.82586 -4.644,-1.83525 -5.80177,-4.38824 -12.18625,-1.17421 -27.51092,13.84936 -5.5322,5.42349 -12.64207,11.78205 -15.7997,14.13015 -6.13873,4.56489 -18.44267,9.55244 -26.61579,10.78903 -4.45499,0.67404 -4.98229,1.12085 -4.8375,4.0991 0.0894,1.83844 0.43541,4.18636 0.76896,5.21761 3.63673,11.24366 8.62435,38.68074 9.77092,53.75 2.93563,38.58331 3.90397,52.12051 4.19635,58.66462 0.25014,5.59897 0.82846,7.1334 3.29776,8.75 6.48857,4.24793 11.0914,9.15888 12.45406,13.28778 0.7855,2.3801 1.94995,10.08635 2.58766,17.12502 0.63773,7.03867 1.74854,16.73508 2.4685,21.54758 2.69048,17.98445 2.69495,24.71727 0.0186,28.125 -2.40074,3.05689 -2.87784,3.13425 -21.89068,3.54946 l -19.43645,0.42448 -1.26164,-3.31835 z"
       id="path3420"
       inkscape:connector-curvature="0" />
    <path
       style="fill:#932091"
       d="m 220.01162,470.65559 c -7.98213,-22.30333 -2.44035,-47.15874 -6.9218,-70.48243 -17.57399,7.35124 -30.29713,-0.41771 -26.83481,-20.24488 -4.62404,-36.5101 -6.88635,-73.57115 -18.86804,-108.67831 -8.45816,-9.0301 2.74665,-36.08238 -15.58308,-25.50269 -21.44178,3.41539 -41.72383,11.1476 -62.905279,14.96459 -4.943457,20.07219 11.267809,40.94742 14.018009,61.85681 8.85842,17.98831 6.38674,46.76455 25.78264,55.89509 28.91005,-2.98369 44.54435,28.16357 21.22621,47.38493 -11.32627,4.67043 38.50736,43.36473 5.93596,43.71352 -23.57944,-6.59527 -42.17377,-25.52469 -52.0046,-47.51362 C 94.907682,402.76249 94.528101,368.00727 64.11693,386.26117 36.779357,399.65665 35.959729,373.29648 34.999831,353.125 29.88717,316.29873 24.683801,279.44638 19.470599,242.66596 c 0.430132,-11.46995 8.033587,-17.74705 18.056645,-21.07952 41.763868,-20.37379 83.710226,-42.10555 130.132296,-49.47265 23.20249,-6.91627 44.52879,-19.21056 68.87606,-22.49264 27.37058,-6.10715 52.69563,-24.15858 81.89928,-17.96473 23.1204,0.24335 48.60854,17.1486 69.7175,1.13784 32.45087,-16.54425 62.60989,-38.367985 98.5157,-46.960271 26.52483,-0.953544 31.79083,-29.872467 41.42764,-49.5172 7.85404,-25.940626 6.77253,11.016036 8.31609,5.48351 8.34762,-15.99596 16.16327,-6.745036 4.29118,5.656618 -11.93752,20.152778 -14.94853,46.550092 -41.3056,53.672293 -19.08284,13.6329 -40.84861,21.99185 -61.60771,32.39368 -18.21046,11.13432 -35.48739,29.10299 -47.97819,44.14259 21.16639,6.37179 40.69797,-9.94638 61.36863,-1.29717 22.39423,3.4706 35.19286,31.35884 23.90316,50.40191 -9.31436,17.08234 -47.73324,10.46524 -26.22866,36.03452 1.29514,20.86389 -0.81455,43.85762 -10.58648,62.60256 -8.84623,16.70429 -24.87347,18.06678 -34.16196,-1.07236 -6.87535,-10.30714 14.51181,-32.42416 -6.9835,-39.07851 -8.34844,-19.25106 -17.15123,-43.00358 4.85227,-57.53422 -6.17777,-12.87538 -28.28508,-4.13385 -16.20075,10.74756 -0.79267,25.99975 -15.39511,49.66057 -14.42899,76.06789 -1.7415,36.683 -1.26665,73.44833 -2.4347,110.1572 6.5313,18.90224 46.99715,2.62701 54.88352,20.87716 -21.51971,5.59597 -44.54718,5.38704 -66.81361,2.45371 -12.15802,-11.86118 -7.64667,-42.98375 -11.8217,-62.51969 -3.8162,-44.77945 -1.31332,-89.92186 2.57528,-134.51157 -15.34612,-12.11693 -35.47451,-31.53181 -56.11696,-30.68447 -19.83658,13.13077 -33.99546,36.50069 -59.74204,39.12329 -10.33049,14.44353 8.27433,42.84103 5.70238,63.06671 2.49701,21.93812 1.72328,44.72879 5.97227,66.15278 22.19817,11.54412 14.67835,39.25668 19.91509,59.45445 10.19897,25.54307 -14.34764,27.46279 -32.43984,25.65374 -3.77201,-0.97069 -10.88521,3.02329 -11.01328,-3.10538 z"
       id="path3418"
       inkscape:connector-curvature="0" />
  </g>
</svg>
